<svg width="49" height="49" viewBox="0 0 49 49" fill="none" xmlns="http://www.w3.org/2000/svg">
<path fill-rule="evenodd" clip-rule="evenodd" d="M4.5 12C4.5 8.68629 7.18629 6 10.5 6H38.5C41.8137 6 44.5 8.68629 44.5 12V36C44.5 39.3137 41.8137 42 38.5 42H10.5C7.18629 42 4.5 39.3137 4.5 36V12ZM10.5 10C9.39543 10 8.5 10.8954 8.5 12V36C8.5 37.1046 9.39543 38 10.5 38H38.5C39.6046 38 40.5 37.1046 40.5 36V12C40.5 10.8954 39.6046 10 38.5 10H10.5ZM15.0858 16.5858C15.8668 15.8047 17.1332 15.8047 17.9142 16.5858L23.9142 22.5858C24.6953 23.3668 24.6953 24.6332 23.9142 25.4142L17.9142 31.4142C17.1332 32.1953 15.8668 32.1953 15.0858 31.4142C14.3047 30.6332 14.3047 29.3668 15.0858 28.5858L19.6716 24L15.0858 19.4142C14.3047 18.6332 14.3047 17.3668 15.0858 16.5858ZM24.5 30C24.5 28.8954 25.3954 28 26.5 28H32.5C33.6046 28 34.5 28.8954 34.5 30C34.5 31.1046 33.6046 32 32.5 32H26.5C25.3954 32 24.5 31.1046 24.5 30Z" fill="#212A3D"/>
</svg>
