<svg width="49" height="48" viewBox="0 0 49 48" fill="none" xmlns="http://www.w3.org/2000/svg">
<path fill-rule="evenodd" clip-rule="evenodd" d="M35.409 8C38.4216 8 40.8636 10.3878 40.8636 13.3333V15.4146C42.9822 16.1467 44.5 18.1223 44.5 20.4444V27.5556C44.5 29.8778 42.9822 31.8532 40.8636 32.5854V34.6666C40.8636 37.6122 38.4216 40 35.409 40H9.95454C6.94208 40 4.5 37.6122 4.5 34.6666V13.3333C4.5 10.3878 6.94208 8 9.95454 8H35.409ZM35.409 11.5556H9.95454C8.9504 11.5556 8.13636 12.3515 8.13636 13.3333V34.6666C8.13636 35.6486 8.9504 36.4444 9.95454 36.4444H35.409C36.4132 36.4444 37.2272 35.6486 37.2272 34.6666V32.8888H26.3182C23.3058 32.8888 20.8636 30.501 20.8636 27.5556V20.4444C20.8636 17.4989 23.3058 15.1111 26.3182 15.1111H37.2272V13.3333C37.2272 12.3515 36.4132 11.5556 35.409 11.5556ZM39.0454 18.6667H26.3182C25.314 18.6667 24.5 19.4626 24.5 20.4444V27.5556C24.5 28.5374 25.314 29.3334 26.3182 29.3334H39.0454C40.0496 29.3334 40.8636 28.5374 40.8636 27.5556V20.4444C40.8636 19.4626 40.0496 18.6667 39.0454 18.6667ZM35.409 22.2044C36.4132 22.2044 37.2272 23.0004 37.2272 23.9822C37.2272 24.9818 36.4132 25.7778 35.409 25.7778C34.405 25.7778 33.591 24.9818 33.591 24C33.591 23.0004 34.405 22.2044 35.409 22.2044Z" fill="#212A3D"/>
</svg>
